<?xml version="1.0" standalone="no"?>
<!DOCTYPE svg PUBLIC "-//W3C//DTD SVG 20010904//EN"
 "http://www.w3.org/TR/2001/REC-SVG-20010904/DTD/svg10.dtd">
<svg version="1.0" xmlns="http://www.w3.org/2000/svg"
 width="1080.000000pt" height="1080.000000pt" viewBox="0 0 1080.000000 1080.000000"
 preserveAspectRatio="xMidYMid meet">
<metadata>
Created by potrace 1.14, written by Peter Selinger 2001-2017
</metadata>
<g transform="translate(0.000000,1080.000000) scale(0.100000,-0.100000)"
fill="#000000" stroke="none">
<path d="M7295 8130 c-206 -15 -440 -61 -613 -119 -201 -68 -317 -126 -526
-264 -41 -27 -95 -75 -178 -159 -188 -190 -312 -432 -370 -721 -30 -150 -33
-484 -5 -617 47 -221 124 -376 263 -529 113 -124 323 -266 516 -347 211 -90
586 -201 973 -289 797 -181 1132 -315 1334 -531 80 -86 130 -178 157 -289 25
-104 23 -305 -4 -413 -83 -323 -359 -520 -837 -598 -133 -21 -525 -30 -678
-15 -614 60 -1160 302 -1533 680 -47 46 -86 82 -88 80 -2 -2 -80 -129 -173
-281 l-170 -277 52 -44 c239 -207 572 -413 862 -533 752 -313 1751 -335 2418
-53 440 185 734 520 835 953 67 283 44 651 -56 896 -65 162 -208 349 -361 474
-117 96 -369 232 -558 302 -223 81 -513 161 -870 239 -757 165 -1062 279
-1245 464 -123 124 -160 223 -167 441 -4 106 -1 167 10 226 55 289 238 502
529 614 268 103 756 135 1118 74 414 -70 777 -261 1010 -530 25 -29 49 -49 53
-45 5 5 82 129 173 277 l164 269 -43 38 c-70 65 -256 201 -357 262 -130 80
-354 187 -479 230 -342 117 -747 165 -1156 135z"/>
<path d="M1470 5380 l0 -2720 1860 0 1860 0 0 305 0 305 -1525 0 -1525 0 0
2415 0 2415 -335 0 -335 0 0 -2720z"/>
</g>
</svg>
